<?xml version="1.0" encoding="UTF-8" standalone="no"?>
<svg
   xmlns:dc="http://purl.org/dc/elements/1.1/"
   xmlns:cc="http://creativecommons.org/ns#"
   xmlns:rdf="http://www.w3.org/1999/02/22-rdf-syntax-ns#"
   xmlns:svg="http://www.w3.org/2000/svg"
   xmlns="http://www.w3.org/2000/svg"
   id="svg8"
   version="1.1"
   viewBox="0 0 135.467 107.231"
   height="107.231mm"
   width="135.467mm">
  <defs
     id="defs2" />
  <metadata
     id="metadata5">
    <rdf:RDF>
      <cc:Work
         rdf:about="">
        <dc:format>image/svg+xml</dc:format>
        <dc:type
           rdf:resource="http://purl.org/dc/dcmitype/StillImage" />
        <dc:title></dc:title>
      </cc:Work>
    </rdf:RDF>
  </metadata>
  <g
     transform="translate(0,-189.769)"
     id="layer1">
    <g
       style="fill:#54bb73;fill-opacity:1"
       transform="matrix(0.26458333,0,0,0.26458333,-0.83154602,161.23123)"
       id="XMLID_1213_">
      <g
         style="fill:#54bb73;fill-opacity:1"
         id="XMLID_198_">
        <path
           style="fill:#54bb73;fill-opacity:1"
           id="XMLID_188_"
           d="M 471.396,326.378 V 223.432 c 0,-40.589 -22.514,-77.194 -58.755,-95.529 -4.926,-2.493 -10.944,-0.52 -13.438,4.409 -2.493,4.928 -0.52,10.944 4.408,13.437 29.475,14.912 47.784,44.678 47.784,77.683 v 94.237 c -7.339,-2.11 -15.078,-3.264 -23.086,-3.264 h -26.741 v -15.242 c 16.556,-11.702 27.396,-30.976 27.396,-52.746 v -30.608 c 0,-5.523 -4.478,-10 -10,-10 h -18.131 c -6.183,0 -11.979,-2.64 -16.042,-7.1 2.517,-5.652 3.928,-11.9 3.928,-18.476 0,-5.523 -4.478,-10 -10,-10 -5.522,0 -10,4.477 -10,10 0,14.103 -11.473,25.576 -25.575,25.576 h -33.316 c -5.522,0 -10,4.477 -10,10 v 30.608 c 0,21.672 10.743,40.869 27.172,52.586 v 15.402 h -30.322 c -5.585,-5.056 -12.114,-9.083 -19.282,-11.802 v -79.171 c 0,-32.967 18.279,-62.718 47.705,-77.643 4.926,-2.498 6.894,-8.516 4.395,-13.442 -2.498,-4.926 -8.518,-6.894 -13.441,-4.395 -36.182,18.351 -58.658,54.937 -58.658,95.479 v 74.81 H 186.333 V 283.45 c 20.403,-13.473 33.47,-37.722 33.47,-66.593 V 190.302 C 231.368,178.278 238.5,161.961 238.5,144 v -26.384 l 3.331,3.331 -13.585,-13.586 h -85.761 c -36.865,0 -66.857,29.992 -66.857,66.858 v 48.568 c 0,25.548 13.371,48.017 33.47,60.824 V 298.24 H 74.753 C 33.534,298.241 0,331.776 0,372.995 v 88.994 c 0,27.57 22.43,50 50,50 h 412 c 27.57,0 50,-22.43 50,-50 v -63.895 c 0,-30.398 -16.295,-57.057 -40.604,-71.716 z M 255.874,106.707 c -268.487434,568.09941 -134.24372,284.04971 0,0 z m 63.955,139.71 v -20.608 h 23.316 c 11.273,0 21.595,-4.123 29.56,-10.929 7.573,6.917 17.56,10.929 28.129,10.929 h 8.131 v 20.608 c 0,24.575 -19.993,44.568 -44.568,44.568 -24.575,0 -44.568,-19.994 -44.568,-44.568 z m 61.739,62.231 v 17.461 c 0,9.53 -7.754,17.284 -17.284,17.284 -9.53,0 -17.283,-7.754 -17.283,-17.284 v -17.525 c 5.539,1.552 11.368,2.4 17.396,2.4 5.946,0.001 11.7,-0.824 17.171,-2.336 z m -125.695,10.011 c 22.535,0 40.869,18.334 40.869,40.869 0,22.535 -18.334,40.869 -40.869,40.869 -22.535,0 -40.869,-18.334 -40.869,-40.869 0,-22.535 18.334,-40.869 40.869,-40.869 z M 95.628,174.221 c 0,-25.837 21.021,-46.858 46.857,-46.858 H 218.5 v 16.638 c 0,25.837 -21.021,46.858 -46.857,46.858 H 95.628 Z m 0,48.568 v -11.93 h 76.015 c 10.057,0 19.595,-2.246 28.16,-6.241 v 12.24 c 0,33.618 -21.905,58.019 -52.087,58.019 -28.722,-0.001 -52.088,-23.367 -52.088,-52.088 z m 70.705,69.666 v 17.575 c 0,10.266 -8.352,18.618 -18.617,18.618 -10.265,0 -18.618,-8.353 -18.618,-18.618 v -17.605 c 5.943,1.59 12.181,2.451 18.618,2.451 6.485,0 12.717,-0.839 18.617,-2.421 z M 150.846,491.989 H 50 c -16.542,0 -30,-13.458 -30,-30 v -88.994 c 0,-30.191 24.562,-54.754 54.753,-54.754 h 35.232 c 3.775,17.362 19.255,30.407 37.731,30.407 18.476,0 33.955,-13.046 37.73,-30.407 h 25.753 c -10.043,10.858 -16.195,25.365 -16.195,41.287 0,18.963 8.72,35.925 22.356,47.097 -16.294,6.59 -30.37,18.141 -40.035,33.364 H 71.873 c -5.522,0 -10,4.478 -10,10 0,5.522 4.478,10 10,10 h 78.973 z m 33.184,0 h -13.185 v -32 h 13.185 c 8.822,0 16,7.178 16,16 0,8.822 -7.177,16 -16,16 z m 111.449,0 h -79.212 c 2.404,-4.823 3.764,-10.255 3.764,-16 0,-14.309 -8.393,-26.693 -20.514,-32.493 12.273,-14.492 30.401,-23.099 49.844,-23.099 h 13.026 c 19.442,0 37.57,8.606 49.842,23.098 -12.121,5.8 -20.514,18.184 -20.514,32.493 0,5.747 1.36,11.178 3.764,16.001 z m 45.421,0 h -13.186 c -8.822,0 -16,-7.178 -16,-16 0,-8.822 7.178,-16 16,-16 H 340.9 Z m 151.1,-30 c 0,16.542 -13.458,30 -30,30 H 360.9 v -32 h 78.973 c 5.522,0 10,-4.478 10,-10 0,-5.522 -4.478,-10 -10,-10 H 334.42 c -9.665,-15.223 -23.74,-26.774 -40.034,-33.365 13.637,-11.172 22.356,-28.133 22.356,-47.096 0,-8.957 -1.96,-17.459 -5.449,-25.124 h 16.65 c 3.782,16.578 18.635,28.989 36.341,28.989 17.707,0 32.56,-12.412 36.342,-28.989 h 27.683 c 35.119,0 63.69,28.571 63.69,63.69 v 63.895 z" />
        <path
           style="fill:#54bb73;fill-opacity:1"
           id="XMLID_612_"
           d="m 364.34,136.379 c 2.63,0 5.21,-1.07 7.07,-2.93 1.859,-1.86 2.93,-4.44 2.93,-7.07 0,-2.64 -1.07,-5.21 -2.93,-7.07 -1.86,-1.86 -4.44,-2.93 -7.07,-2.93 -2.63,0 -5.21,1.07 -7.07,2.93 -1.859,1.86 -2.93,4.43 -2.93,7.07 0,2.63 1.07,5.21 2.93,7.07 1.86,1.86 4.44,2.93 7.07,2.93 z" />
      </g>
    </g>
  </g>
</svg>
