<svg id="Layer_3" enable-background="new 0 0 64 64" height="512" viewBox="0 0 64 64" width="512" xmlns="http://www.w3.org/2000/svg"><g><path d="m60 25c-1.654 0-3 1.346-3 3v5h-27v-28h5v2.184c-1.161.414-2 1.514-2 2.816v4c0 1.302.839 2.402 2 2.816v2.184h2v-2.184c1.161-.414 2-1.514 2-2.816v-4c0-1.302-.839-2.402-2-2.816v-2.184c.265 0 .52-.105.707-.293l2-2-1.414-1.414-1.707 1.707h-6.586v-2h-2v2h-6.586l-1.707-1.707-1.414 1.414 2 2c.187.188.442.293.707.293h7v28h-3.586l-10.207-10.207c-1.179-1.18-3.235-1.18-4.414 0-.59.589-.915 1.374-.915 2.207s.325 1.618.915 2.207l9.793 9.793h-12.586v-15c0-1.654-1.346-3-3-3s-3 1.346-3 3v24 4c0 .552.448 1 1 1h5.434l2.064 3.44c-.923.908-1.498 2.167-1.498 3.56 0 2.757 2.243 5 5 5s5-2.243 5-5c0-1.393-.575-2.652-1.498-3.56l.264-.44h30.468l.264.44c-.923.908-1.498 2.167-1.498 3.56 0 2.757 2.243 5 5 5s5-2.243 5-5c0-1.393-.575-2.652-1.498-3.56l2.064-3.44h5.434c.552 0 1-.448 1-1v-4-18c0-1.654-1.346-3-3-3zm-23-11c0 .551-.449 1-1 1s-1-.449-1-1v-4c0-.551.449-1 1-1s1 .449 1 1zm23 13c.551 0 1 .449 1 1v17h-1v-5c0-.883-.391-1.67-1-2.22v-9.78c0-.551.449-1 1-1zm-48.793-1.207c-.437-.438-.437-1.148 0-1.586.424-.424 1.162-.424 1.586 0l10.5 10.5c.187.188.442.293.707.293h33v2h-34.586zm45.793 13.207c.551 0 1 .449 1 1v5h-52v-5c0-.551.449-1 1-1zm-53-18c.551 0 1 .449 1 1v15.78c-.609.55-1 1.337-1 2.22v5h-1v-23c0-.551.449-1 1-1zm9 40c-1.654 0-3-1.346-3-3s1.346-3 3-3 3 1.346 3 3-1.346 3-3 3zm0-8c-.644 0-1.255.132-1.821.355l-1.413-2.355h6.468l-1.413 2.355c-.566-.223-1.177-.355-1.821-.355zm4.966-1 .6-1h26.868l.6 1zm33.034 9c-1.654 0-3-1.346-3-3s1.346-3 3-3 3 1.346 3 3-1.346 3-3 3zm1.821-7.645c-.566-.223-1.177-.355-1.821-.355s-1.255.132-1.821.355l-1.413-2.355h6.468zm8.179-4.355h-5-10-28-10-5v-2h2 54 2z"/><circle cx="13" cy="58" r="2"/><circle cx="51" cy="58" r="2"/><path d="m35 21h2v2h-2z"/><path d="m35 25h2v2h-2z"/><path d="m35 29h2v2h-2z"/><path d="m8 41h8v2h-8z"/><path d="m18 41h2v2h-2z"/></g></svg>