<?xml version="1.0"?>
<svg xmlns="http://www.w3.org/2000/svg" viewBox="0 0 512 512" width="512" height="512"><g id="Out_line" data-name="Out line"><path fill="#44C07C" d="M152,232a8.00917,8.00917,0,0,1-8-8v-8h8a8.00039,8.00039,0,0,0,8-8V160a8.00039,8.00039,0,0,0-8-8H40a8.00039,8.00039,0,0,0-8,8v48a8.00039,8.00039,0,0,0,8,8h8v8a8.00917,8.00917,0,0,1-8,8,24.0275,24.0275,0,0,0-24,24V472a24.0275,24.0275,0,0,0,24,24H152a24.0275,24.0275,0,0,0,24-24V256A24.0275,24.0275,0,0,0,152,232ZM48,168h96v32H48Zm-8,80H80V232H62.62378A23.88238,23.88238,0,0,0,64,224v-8h64v8a23.88238,23.88238,0,0,0,1.37622,8H104v16h48a8.00917,8.00917,0,0,1,8,8v24H32V256A8.00917,8.00917,0,0,1,40,248Zm120,48V408H32V296Zm-8,184H40a8.00917,8.00917,0,0,1-8-8V424H160v48A8.00917,8.00917,0,0,1,152,480Z"/><path fill="#44C07C" d="M493.65723,482.34277,430.3877,419.07324a24.99631,24.99631,0,0,0-4.73047-28.73047L408,372.68652V328a8.00235,8.00235,0,0,0-2.34277-5.65723L211.31445,128l6.34278-6.34277a24.97109,24.97109,0,0,0-35.31446-35.31446L160,108.68555,115.31445,64l6.34278-6.34277A24.97109,24.97109,0,0,0,86.34277,22.34277l-64,64a24.9711,24.9711,0,0,0,35.31446,35.31446L64,115.31445l18.34277,18.34278,11.31446-11.31446L75.31445,104,104,75.31445,148.68555,120l-10.34278,10.34277,11.31446,11.31446,44-44a8.97,8.97,0,0,1,12.68554,12.68554l-36,36,11.31446,11.31446L200,139.31445,220.68555,160l-34.34278,34.34277,11.31446,11.31446L232,171.31445,244.68555,184l-18.34278,18.34277,11.31446,11.31446L256,195.31445l12.68555,12.68531-18.34278,18.343,11.31446,11.31446L280,219.31421l12.68555,12.68555-34.34278,34.343,11.31446,11.31446L304,243.31421l12.686,12.68555-18.34327,18.343,11.31446,11.31446L328.00049,267.314,340.686,279.99951l-18.34327,18.34326,11.31446,11.31446L352.00049,291.314,364.686,303.99951l-34.34327,34.34326,11.31446,11.31446L376.00049,315.314,388.686,327.99951,327.99951,388.686,197.65723,258.34277l-11.31446,11.31446,136,136A8.00235,8.00235,0,0,0,328,408h44.68652l17.65625,17.65723a24.99631,24.99631,0,0,0,28.73047,4.73047l63.26953,63.26953a8.00053,8.00053,0,0,0,11.31446-11.31446Zm-447.31446-372A8.97,8.97,0,0,1,33.65723,97.65723l64-64a8.97,8.97,0,0,1,12.68554,12.68554ZM392,372.68555,372.68555,392h-25.3711L392,347.31445Zm9.65723,41.65722L387.31445,400,400,387.31445l14.34277,14.34278a8.97,8.97,0,0,1-12.68554,12.68554Z"/></g></svg>
