<?xml version="1.0"?>
<svg xmlns="http://www.w3.org/2000/svg" id="Oultline" viewBox="0 0 512 512" width="512" height="512"><path d="M424,176h-8v-8c0-13.286-16.64-23.248-50.871-30.455C335.893,131.39,297.137,128,256,128s-79.894,3.39-109.129,9.545C112.64,144.752,96,154.714,96,168v8H88a72.081,72.081,0,0,0-72,72v16a72.081,72.081,0,0,0,72,72h8v8c0,13.286,16.64,23.248,50.871,30.455C176.106,380.61,214.863,384,256,384s79.893-3.39,109.129-9.545C399.36,367.248,416,357.286,416,344v-8h8a72.081,72.081,0,0,0,72-72V248A72.081,72.081,0,0,0,424,176ZM88,320a56.064,56.064,0,0,1-56-56V248a56.064,56.064,0,0,1,56-56h8V320Zm24,23.808V168.192c.3-.546,2.851-4.382,16-9.026V352.834C114.851,348.19,112.3,344.354,112,343.808Zm246.139,15.741C330.4,365,294.129,368,256,368s-74.4-3-102.139-8.451c-3.587-.7-6.857-1.416-9.861-2.127V288h40a8,8,0,0,0,0-16H144V240H248a8,8,0,0,0,0-16H144V154.578c3-.711,6.274-1.423,9.861-2.127C181.6,147,217.871,144,256,144s74.4,3,102.139,8.451c3.586.7,6.857,1.416,9.861,2.128V224H280a8,8,0,0,0,0,16h88v32H216a8,8,0,0,0,0,16H368v69.421C365,358.133,361.725,358.845,358.139,359.549ZM400,343.808c-.3.546-2.851,4.382-16,9.026V159.166c13.149,4.644,15.7,8.48,16,9.026ZM480,264a56.064,56.064,0,0,1-56,56h-8V192h8a56.064,56.064,0,0,1,56,56Z"/><path d="M311.051,179.123a8,8,0,0,0,1.9-15.887,502.729,502.729,0,0,0-113.9,0,8,8,0,1,0,1.9,15.887,486.77,486.77,0,0,1,110.1,0Z"/></svg>
